<!-- Generated by IcoMoon.io -->
<svg version="1.1" xmlns="http://www.w3.org/2000/svg" width="512" height="512" viewBox="0 0 512 512">
<title></title>
<g id="icomoon-ignore">
</g>
<path fill="#000" d="M54.653 278.617l169.371-169.371v370.748c0 17.668 14.335 31.995 31.995 31.995s31.995-14.336 31.995-31.995v-370.748l169.371 169.372c12.51 12.51 32.763 12.51 45.243 0s12.51-32.763 0-45.243l-223.994-223.994c-2.948-2.948-6.461-5.309-10.371-6.941s-8.092-2.428-12.26-2.428c-8.189 0-16.387 3.14-22.626 9.379l-223.994 223.994c-12.51 12.51-12.51 32.763 0 45.242s32.763 12.51 45.242 0z"></path>
</svg>
